<svg xmlns="http://www.w3.org/2000/svg" width="220" height="220" viewBox="0 0 220 220">
    <rect width="220" height="220" fill="#fff"/>
    <rect x="12" y="12" width="60" height="60" fill="#000"/>
    <rect x="26" y="26" width="32" height="32" fill="#fff"/>
    <rect x="34" y="34" width="16" height="16" fill="#000"/>

    <rect x="148" y="12" width="60" height="60" fill="#000"/>
    <rect x="162" y="26" width="32" height="32" fill="#fff"/>
    <rect x="170" y="34" width="16" height="16" fill="#000"/>

    <rect x="12" y="148" width="60" height="60" fill="#000"/>
    <rect x="26" y="162" width="32" height="32" fill="#fff"/>
    <rect x="34" y="170" width="16" height="16" fill="#000"/>

    <rect x="96" y="96" width="20" height="20" fill="#000"/>
    <rect x="130" y="96" width="32" height="20" fill="#000"/>
    <rect x="96" y="130" width="40" height="16" fill="#000"/>
    <rect x="150" y="130" width="16" height="16" fill="#000"/>
    <rect x="176" y="112" width="12" height="28" fill="#000"/>
    <rect x="70" y="96" width="12" height="28" fill="#000"/>
</svg>
